# xmcd CD database file
#
# Track frame offsets:
#	150
#	19955
#	41692
#
# Disc length: 816 seconds
#
# Revision: 1
# Processed by: cddbd v1.5.1PL0 Copyright (c) Steve Scherf et al.
# Submitted via: CDex 1.51
#
DISCID=1f032e03
DTITLE=平松愛里 - 女の生命は短くて
DYEAR=1994
DGENRE=JPop
TTITLE0=女の生命は短くて
TTITLE1=渚のエンブレム
TTITLE2=女の生命は短くて(カラオケ)
EXTD=YEAR: 1994
EXTT0=
EXTT1=
EXTT2=
PLAYORDER=
